<?xml version="1.0"?>
<svg xmlns="http://www.w3.org/2000/svg" id="Layer_1" height="24px" viewBox="0 0 128 128" width="24px" data-name="Layer 1"><g><path d="m11 25.364h106v69.672h-106z" fill="#f7ecda" data-original="#F7ECDA"/><path d="m64 25.364h53v69.672h-53z" fill="#ecd6b2" data-original="#ECD6B2"/><path d="m17.188 31.128h93.623v52.304h-93.623z" fill="#1db6bc" data-original="#1DB6BC"/><path d="m64 31.128h46.812v52.304h-46.812z" fill="#17799b" data-original="#17799B"/><path d="m77.667 110.934h-27.334l4-15.898h19.334z" fill="#606de0" data-original="#606DE0"/><path d="m48.691 110.934h30.618a6.066 6.066 0 0 1 6.066 6.066 0 0 0 0 1 0 0h-42.75a0 0 0 0 1 0 0 6.066 6.066 0 0 1 6.066-6.066z" fill="#9f5f4d" data-original="#9F5F4D"/><path d="m26.5 13.274h37.5v54.575h-37.5z" fill="#fed33c" data-original="#FED33C"/><path d="m64 13.274h37.5v54.575h-37.5z" fill="#fd9e35" data-original="#FD9E35"/><path d="m64 63.606a67.388 67.388 0 0 0 -31.132 0v-50.332s15.566-5.117 31.132 0z" fill="#f7ecda" data-original="#F7ECDA"/><path d="m64 63.606a67.388 67.388 0 0 1 31.132 0v-50.332s-15.566-5.117-31.132 0z" fill="#ecd6b2" data-original="#ECD6B2"/><g fill="#714437"><path d="m58.886 22.473c-10.333-3.4-20.478-.141-20.9 0a1.75 1.75 0 0 0 1.087 3.327c.094-.031 9.509-3.03 18.721 0a1.75 1.75 0 1 0 1.093-3.324z" data-original="#000000"/><path d="m58.886 31.487c-10.333-3.4-20.478-.141-20.9 0a1.75 1.75 0 0 0 1.091 3.325c.094-.03 9.509-3.029 18.721 0a1.75 1.75 0 1 0 1.093-3.324z" data-original="#000000"/><path d="m58.886 40.5c-10.333-3.4-20.478-.141-20.9 0a1.75 1.75 0 0 0 1.091 3.325c.094-.031 9.509-3.03 18.721 0a1.75 1.75 0 1 0 1.088-3.325z" data-original="#000000"/><path d="m58.886 49.517c-10.333-3.4-20.478-.141-20.9 0a1.75 1.75 0 1 0 1.093 3.324c.094-.03 9.466-3.041 18.719 0a1.75 1.75 0 1 0 1.093-3.324z" data-original="#000000"/><path d="m69.66 25.885a1.754 1.754 0 0 0 .547-.088c9.193-3.021 18.587-.041 18.72 0a1.75 1.75 0 0 0 1.092-3.325c-.428-.141-10.569-3.4-20.905 0a1.75 1.75 0 0 0 .547 3.412z" data-original="#000000"/><path d="m90.019 31.487c-.428-.141-10.569-3.4-20.905 0a1.75 1.75 0 1 0 1.094 3.324c9.193-3.021 18.587-.041 18.72 0a1.75 1.75 0 0 0 1.092-3.325z" data-original="#000000"/><path d="m90.019 40.5c-.428-.141-10.569-3.4-20.905 0a1.75 1.75 0 1 0 1.094 3.324c9.193-3.022 18.587-.042 18.72 0a1.75 1.75 0 0 0 1.091-3.324z" data-original="#000000"/><path d="m90.019 49.517c-.428-.141-10.569-3.4-20.905 0a1.75 1.75 0 1 0 1.094 3.324c9.192-3.021 18.589-.042 18.72 0a1.75 1.75 0 0 0 1.092-3.325z" data-original="#000000"/><path d="m64 110.934v6.066h21.375a6.066 6.066 0 0 0 -6.066-6.066z" data-original="#000000"/></g><path d="m64 110.934h13.667l-4-15.898h-9.667z" fill="#3647d7" data-original="#3647D7" class="active-path" style="fill:#3647D7"/></g> </svg>
