<?xml version="1.0"?>
<svg xmlns="http://www.w3.org/2000/svg" height="512px" viewBox="-36 0 512 512" width="512px"><g><path d="m399.195312 92.710938h-226.640624c-22.757813 0-41.207032 18.449218-41.207032 41.207031v336.875c0 22.757812 18.449219 41.207031 41.207032 41.207031h226.640624c22.757813 0 41.207032-18.449219 41.207032-41.207031v-336.875c0-22.757813-18.449219-41.207031-41.207032-41.207031zm0 0" fill="#ce795f" data-original="#CE795F"/><path d="m409.496094 94.011719v39.90625l-236.941406 347.175781h-39.910157c4.574219 17.773438 20.710938 30.90625 39.910157 30.90625h226.640624c22.757813 0 41.207032-18.449219 41.207032-41.207031v-336.875c0-19.199219-13.132813-35.332031-30.90625-39.90625zm0 0" fill="#a05a4b" data-original="#A05A4B"/><path d="m386.316406 481.09375h-200.882812c-12.800782 0-23.179688-10.378906-23.179688-23.179688v-311.117187c0-12.800781 10.378906-23.179687 23.179688-23.179687h200.882812c12.800782 0 23.179688 10.378906 23.179688 23.179687v311.117187c0 12.800782-10.378906 23.179688-23.179688 23.179688zm0 0" fill="#fff9eb" data-original="#FFF9EB"/><path d="m386.316406 123.617188h-7.726562v303.394531c0 12.800781-10.375 23.175781-23.175782 23.175781h-193.160156v7.726562c0 12.800782 10.378906 23.179688 23.179688 23.179688h200.882812c12.800782 0 23.179688-10.378906 23.179688-23.179688v-311.117187c0-12.800781-10.378906-23.179687-23.179688-23.179687zm0 0" fill="#e9e3d5" data-original="#E9E3D5"/><path d="m329.839844 72.210938c-5.800782-.386719-19.558594.398437-22.449219-.585938-3.523437-1.199219-6.0625-4.527344-6.0625-8.460938 0-3.203124 1.46875-6.210937 3.960937-8.226562 6.574219-5.308594 10.898438-13.304688 11.433594-22.148438 0-.023437.003906-.050781.007813-.074218 1.023437-17.742188-13.074219-32.714844-30.855469-32.714844-17.066406 0-30.90625 13.832031-30.90625 30.898438 0 9.714843 4.484375 18.375 11.492188 24.039062 2.492187 2.015625 3.960937 5.023438 3.960937 8.226562 0 .28125-.035156.675782-.035156.675782-.34375 4.621094-4.195313 8.265625-8.90625 8.265625h-16.8125c-22.800781 0-41.207031 18.515625-41.207031 41.207031.074218 14.203125 11.835937 25.753906 26.089843 25.753906h112.984375c14.222656 0 25.753906-11.527344 25.753906-25.753906 0-21.660156-16.832031-39.679688-38.449218-41.101562zm-43.964844-49.035157c4.4375 0 7.828125 3.773438 7.71875 7.914063-.003906.070312-.007812.140625-.011719.210937-.25 4.558594-4.183593 7.519531-8.605469 7.269531-3.84375-.445312-6.828124-3.707031-6.828124-7.667968 0-4.269532 3.460937-7.726563 7.726562-7.726563zm0 0" fill="#8b9ba9" data-original="#8B9BA9"/><path d="m337.382812 73.421875v11.5625c0 12.800781-10.375 23.179687-23.175781 23.179687h-110.414062c-.210938 1.691407-.332031 3.40625-.332031 5.152344.074218 14.199219 11.835937 25.753906 26.089843 25.753906h112.824219c14.21875 0 25.949219-11.636718 25.914062-25.851562-.042968-19.023438-13.074218-35.214844-30.90625-39.796875zm0 0" fill="#6c7a88" data-original="#6C7A88"/><path d="m81.125 130.058594h-7.722656c-36.214844 0-65.675782 29.460937-65.675782 65.671875v67.476562c-4.269531 0-7.726562 3.457031-7.726562 7.726563 0 4.269531 3.457031 7.726562 7.726562 7.726562h7.726563c4.269531 0 7.726563-3.457031 7.726563-7.726562v-75.203125c0-25.0625 18.457031-45.898438 42.496093-49.625v321.335937c0 4.269532 3.457031 7.726563 7.726563 7.726563 4.265625 0 7.722656-3.457031 7.722656-7.726563v-321.929687c4.269531 0 7.726562-3.460938 7.726562-7.726563 0-4.269531-3.457031-7.726562-7.726562-7.726562zm0 0" fill="#8b9ba9" data-original="#8B9BA9"/><path d="m73.402344 452.503906c-15.433594 0-27.042969-22.65625-27.042969-37.34375v-219.429687c0-14.910157 12.128906-27.039063 27.042969-27.039063 14.910156 0 27.039062 12.128906 27.039062 27.039063v219.429687c0 14.6875-11.609375 37.34375-27.039062 37.34375zm0 0" fill="#6697cc" data-original="#6697CC"/><path d="m73.402344 168.691406c-1.3125 0-2.601563.097656-3.863282.277344v232.027344c0 11.378906-9.226562 20.601562-20.605468 20.601562h-1.929688c2.628906 14.058594 13.089844 30.90625 26.398438 30.90625 15.429687 0 27.039062-22.65625 27.039062-37.34375v-219.429687c0-14.910157-12.128906-27.039063-27.039062-27.039063zm0 0" fill="#4b7cb1" data-original="#4B7CB1"/><path d="m347.941406 388.378906c0 34.136719-27.675781 61.808594-61.8125 61.808594-34.136718 0-61.808594-27.671875-61.808594-61.808594 0-34.136718 27.671876-61.8125 61.808594-61.8125 34.136719 0 61.8125 27.675782 61.8125 61.8125zm0 0" fill="#ff7c8c" data-original="#FF7C8C"/><path d="m317.519531 335.136719c5.4375 9.199219 8.566407 19.925781 8.566407 31.386719 0 34.140624-27.671876 61.8125-61.808594 61.8125-11.460938 0-22.1875-3.132813-31.390625-8.566407 10.753906 18.203125 30.566406 30.417969 53.242187 30.417969 34.136719 0 61.8125-27.671875 61.8125-61.808594 0-22.675781-12.21875-42.488281-30.421875-53.242187zm0 0" fill="#ff5368" data-original="#FF5368"/><g fill="#c91d32"><path d="m270.472656 380.433594v-3.089844c0-4.777344-3.871094-8.652344-8.648437-8.652344-4.78125 0-8.652344 3.875-8.652344 8.652344v3.089844c0 4.777344 3.871094 8.652344 8.652344 8.652344 4.777343 0 8.648437-3.875 8.648437-8.652344zm0 0" data-original="#000000"/><path d="m310.4375 368.691406c-4.777344 0-8.652344 3.875-8.652344 8.652344v3.089844c0 4.777344 3.875 8.652344 8.652344 8.652344s8.652344-3.875 8.652344-8.652344v-3.089844c0-4.777344-3.875-8.652344-8.652344-8.652344zm0 0" data-original="#000000"/><path d="m275.203125 426.40625c2.917969-2.917969 6.800781-4.527344 10.925781-4.527344 4.128906 0 8.007813 1.609375 10.929688 4.527344 3.015625 3.015625 7.90625 3.015625 10.925781 0 3.015625-3.015625 3.015625-7.910156 0-10.925781-5.839844-5.839844-13.601563-9.054688-21.855469-9.054688s-16.011718 3.214844-21.851562 9.054688c-3.015625 3.015625-3.015625 7.910156 0 10.925781s7.90625 3.015625 10.925781 0zm0 0" data-original="#000000"/></g><path d="m286.128906 293.597656c-34.082031 0-61.808594-27.730468-61.808594-61.8125 0-34.082031 27.726563-61.808594 61.808594-61.808594 34.082032 0 61.8125 27.726563 61.8125 61.808594 0 34.082032-27.730468 61.8125-61.8125 61.8125zm0 0" fill="#c4ea73" data-original="#C4EA73"/><path d="m317.5 178.558594c5.449219 9.203125 8.585938 19.925781 8.585938 31.375 0 34.082031-27.726563 61.808594-61.808594 61.808594-11.449219 0-22.171875-3.136719-31.375-8.582032 10.769531 18.199219 30.589844 30.4375 53.226562 30.4375 34.082032 0 61.8125-27.730468 61.8125-61.8125 0-22.636718-12.238281-42.457031-30.441406-53.226562zm0 0" fill="#a4d541" data-original="#A4D541"/><path d="m270.472656 223.839844v-3.089844c0-4.777344-3.871094-8.652344-8.648437-8.652344-4.78125 0-8.652344 3.875-8.652344 8.652344v3.089844c0 4.777344 3.871094 8.652344 8.652344 8.652344 4.777343 0 8.648437-3.875 8.648437-8.652344zm0 0" fill="#4c7e08" data-original="#4C7E08" class="active-path" style="fill:#4C7E08"/><path d="m310.4375 212.097656c-4.777344 0-8.652344 3.875-8.652344 8.652344v3.089844c0 4.777344 3.875 8.652344 8.652344 8.652344s8.652344-3.875 8.652344-8.652344v-3.089844c0-4.777344-3.875-8.652344-8.652344-8.652344zm0 0" fill="#4c7e08" data-original="#4C7E08" class="active-path" style="fill:#4C7E08"/><path d="m297.054688 252.097656c-2.917969 2.917969-6.800782 4.527344-10.925782 4.527344-4.128906 0-8.007812-1.609375-10.925781-4.527344-3.019531-3.019531-7.910156-3.015625-10.929687 0-3.015626 3.015625-3.015626 7.910156 0 10.925782 5.839843 5.835937 13.601562 9.050781 21.855468 9.050781s16.015625-3.214844 21.851563-9.050781c3.019531-3.015626 3.019531-7.910157 0-10.925782-3.015625-3.015625-7.90625-3.015625-10.925781 0zm0 0" fill="#4c7e08" data-original="#4C7E08" class="active-path" style="fill:#4C7E08"/></g> </svg>
